<?xml version="1.0" encoding="UTF-8" standalone="no"?>
<svg
   xmlns:dc="http://purl.org/dc/elements/1.1/"
   xmlns:cc="http://creativecommons.org/ns#"
   xmlns:rdf="http://www.w3.org/1999/02/22-rdf-syntax-ns#"
   xmlns:svg="http://www.w3.org/2000/svg"
   xmlns="http://www.w3.org/2000/svg"
   xmlns:sodipodi="http://sodipodi.sourceforge.net/DTD/sodipodi-0.dtd"
   xmlns:inkscape="http://www.inkscape.org/namespaces/inkscape"
   version="1.1"
   width="96px"
   height="124px"
   id="svg2"
   inkscape:version="0.92.3 (2405546, 2018-03-11)"
   sodipodi:docname="sprites.svg"
   inkscape:export-filename="/home/josh/edublocks/ui/blockly/media/sprites.png"
   inkscape:export-xdpi="90"
   inkscape:export-ydpi="90">
  <metadata
     id="metadata65">
    <rdf:RDF>
      <cc:Work
         rdf:about="">
        <dc:format>image/svg+xml</dc:format>
        <dc:type
           rdf:resource="http://purl.org/dc/dcmitype/StillImage" />
        <dc:title />
      </cc:Work>
    </rdf:RDF>
  </metadata>
  <defs
     id="defs63" />
  <sodipodi:namedview
     pagecolor="#ff41ff"
     bordercolor="#666666"
     borderopacity="1"
     objecttolerance="10"
     gridtolerance="10"
     guidetolerance="10"
     inkscape:pageopacity="0"
     inkscape:pageshadow="2"
     inkscape:window-width="1366"
     inkscape:window-height="959"
     id="namedview61"
     showgrid="false"
     inkscape:zoom="15.225806"
     inkscape:cx="2.6692765"
     inkscape:cy="8.2880274"
     inkscape:window-x="67"
     inkscape:window-y="27"
     inkscape:window-maximized="0"
     inkscape:current-layer="svg2" />
  <style
     type="text/css"
     id="style4">
#background {
  fill: none;
}
.arrows {
  fill: #000;
  stroke: none;
}
.selected&gt;.arrows {
  fill: #fff;
}
.checkmark {
  fill: #000;
  font-family: sans-serif;
  font-size: 10pt;
  text-anchor: middle;
}
.trash {
  fill: #888;
}
.zoom {
  fill: none;
  stroke: #888;
  stroke-width: 2;
  stroke-linecap: round;
}
.zoom&gt;.center {
  fill: #888;
  stroke-width: 0;
}
  </style>
  <rect
     id="background"
     width="96"
     height="124"
     x="0"
     y="0" />
  <g
     id="g7">
    <path
       class="arrows"
       d="M 13,1.5 13,14.5 1.74,8 z"
       id="path9" />
    <path
       class="arrows"
       d="M 17.5,3 30.5,3 24,14.26 z"
       id="path11" />
    <path
       class="arrows"
       d="M 35,1.5 35,14.5 46.26,8 z"
       id="path13" />
  </g>
  <g
     class="selected"
     transform="translate(0, 16)"
     id="g15">
    <path
       class="arrows"
       d="M 13,1.5 13,14.5 1.74,8 z"
       id="path17" />
    <path
       class="arrows"
       d="M 17.5,3 30.5,3 24,14.26 z"
       id="path19" />
    <path
       class="arrows"
       d="M 35,1.5 35,14.5 46.26,8 z"
       id="path21" />
  </g>
  <g
     class="trash"
     id="g25">
    <path
       d="M 2,41 v 6 h 42 v -6 h -10.5 l -3,-3 h -15 l -3,3 z"
       id="path27" />
    <rect
       width="36"
       height="20"
       x="5"
       y="50"
       id="rect29" />
    <rect
       width="36"
       height="42"
       x="5"
       y="50"
       rx="4"
       ry="4"
       id="rect31" />
  </g>
  <g
     class="zoom"
     id="g47">
    <circle
       r="15"
       cx="48"
       cy="108"
       id="circle49" />
    <path
       d="m 48,101.6 v12.8"
       id="path51" />
    <path
       d="m 41.6,108 h12.8"
       id="path53" />
  </g>
  <g
     class="zoom"
     id="g55">
    <circle
       r="15"
       cx="80"
       cy="108"
       id="circle57" />
    <path
       d="m 73.6,108 h12.8"
       id="path59" />
  </g>
  <path
     inkscape:connector-curvature="0"
     style="fill:#ffffff"
     d="m 53.606125,28.447668 c -0.337724,0 -0.675448,-0.133184 -0.932699,-0.398195 l -2.532931,-2.609332 c -0.515821,-0.531379 -0.515821,-1.390283 0,-1.921664 0.515821,-0.53138 1.349577,-0.53138 1.865398,0 l 1.600232,1.6485 4.990666,-5.139839 c 0.514502,-0.53138 1.349577,-0.53138 1.865399,0 0.514502,0.530019 0.514502,1.390284 0,1.921664 l -5.923365,6.100671 c -0.257252,0.265011 -0.594976,0.398195 -0.9327,0.398195"
     id="Fill-1" />
  <path
     style="fill:#888888;fill-opacity:1;stroke-width:0.07447316"
     d="m 9.307917,114.46684 -0.739819,-0.75488 1.328283,-1.30818 1.32828,-1.30817 -0.808396,-0.81935 -0.808394,-0.81935 h 2.351057 2.35106 v 2.37552 2.37552 l -0.815223,-0.82116 -0.815225,-0.82115 -1.315903,1.32804 -1.315905,1.32805 z m 11.142113,-0.5647 -1.305371,-1.31895 -0.822013,0.85108 -0.822017,0.85108 -0.0024,-2.41422 -0.0024,-2.41422 h 2.388104 2.388103 l -0.812684,0.82369 -0.812686,0.82369 1.288948,1.30395 1.28895,1.30396 -0.688998,0.75444 c -0.378949,0.41495 -0.709505,0.75445 -0.734573,0.75445 -0.02507,0 -0.63299,-0.59352 -1.350943,-1.31895 z m -10.04796,-8.54319 0.795866,-0.80415 -1.313461,-1.32865 -1.313458,-1.32866 0.480117,-0.49298 c 0.264066,-0.27114 0.610636,-0.5987 0.77016,-0.72791 l 0.290036,-0.23495 1.276304,1.3433 1.2763,1.34331 0.819649,-0.85937 0.81965,-0.85938 0.0034,2.37679 0.0034,2.37681 H 11.958121 9.606229 Z m 7.09374,-1.57137 v -2.37551 l 0.797668,0.80347 c 0.438715,0.44191 0.830113,0.80347 0.86977,0.80347 0.03965,0 0.647643,-0.58082 1.351072,-1.2907 l 1.278967,-1.29068 0.721572,0.72908 0.721574,0.72908 -1.2774,1.29226 c -0.702569,0.71075 -1.277399,1.32206 -1.277399,1.35848 0,0.0365 0.339731,0.41505 0.754959,0.8414 l 0.754957,0.77518 h -2.34787 -2.34787 z"
     id="path3769"
     inkscape:connector-curvature="0" />
  <circle
     style="fill:none;stroke:#888888;stroke-width:2;stroke-linecap:round"
     id="circle49-6"
     cy="108"
     cx="16"
     r="15" />
</svg>
